<svg xmlns="http://www.w3.org/2000/svg" version="1.1" xmlns:xlink="http://www.w3.org/1999/xlink" viewBox="0 0 200 200"><rect width="200" height="200" fill="url('#gradient')"></rect><defs><linearGradient id="gradient" gradientTransform="rotate(128 0.5 0.5)"><stop offset="0%" stop-color="#3ebde6"></stop><stop offset="100%" stop-color="#4a39ed"></stop></linearGradient></defs><g><g fill="#2247cc" transform="matrix(7.504885993485342,0,0,7.504885993485342,1.9472586483442882,153.35911528217676)" stroke="#90a3e6" stroke-width="0.2"><path d="M8.94 0L5.91-5.29L4.50-3.75L4.50 0L1.07 0L1.07-14.22L4.50-14.22L4.50-7.95L5.69-9.76L8.76-14.22L13.00-14.22L8.19-7.93L13.00 0L8.94 0ZM19.48-4.82L17.29-4.82L17.29 0L13.87 0L13.87-14.22L19.54-14.22Q21.17-14.22 22.43-13.62Q23.68-13.02 24.37-11.91Q25.06-10.80 25.06-9.39L25.06-9.39Q25.06-7.31 23.57-6.07Q22.08-4.82 19.48-4.82L19.48-4.82ZM17.29-11.57L17.29-7.47L19.54-7.47Q20.54-7.47 21.06-7.97Q21.58-8.47 21.58-9.38L21.58-9.38Q21.58-10.37 21.04-10.97Q20.51-11.56 19.58-11.57L19.58-11.57L17.29-11.57Z"></path></g></g></svg>